<svg xmlns="http://www.w3.org/2000/svg" fill="none" viewBox="0 0 24 24" stroke="currentColor">
  <path fill="#111827" d="M4 11.88a8 8 0 111.896 5.292L4.29 18.368a9.978 9.978 0 007.561 3.63c5.523.083 10.066-4.326 10.149-9.848C22.08 6.627 17.672 2.084 12.149 2 6.628 1.92 2.085 6.328 2.002 11.851c-.01.64.041 1.268.148 1.877l1.858-1.384a8.128 8.128 0 01-.006-.464z"/>
  <path fill="#111827" d="M13.06 8.015a1 1 0 10-2-.03l-.06 4a1 1 0 00.282.712l2.955 3.044a1 1 0 101.435-1.393l-2.666-2.747.054-3.586zM4.164 14.817a1 1 0 01-1.732.032L.788 12.118a1 1 0 01.838-1.516l3.187-.058a1 1 0 01.893 1.483l-1.542 2.79zM6.097 17.735a1.017 1.017 0 11-2.035 0 1.017 1.017 0 012.035 0z"/>
</svg>
