<svg xmlns="http://www.w3.org/2000/svg" fill="none" viewBox="0 0 24 24" stroke="currentColor">
  <path fill="#111827" d="M20.268 3.732l.707-.707-.707.707zM6.5 21.035v1a1 1 0 00.707-.292l-.707-.707zm-3.5 0H2a1 1 0 001 1v-1zm0-3.57l-.707-.708a1 1 0 00-.293.707h1zM17.44 4.438a1.5 1.5 0 012.12 0l1.415-1.414a3.5 3.5 0 00-4.95 0L17.44 4.44zm2.12 0a1.5 1.5 0 010 2.122l1.415 1.414a3.5 3.5 0 000-4.95L19.56 4.44zm0 2.122L5.794 20.328l1.414 1.415L20.975 7.975 19.56 6.56zM6.5 20.035H3v2h3.5v-2zm9.525-17.01L2.293 16.757l1.414 1.415L17.44 4.439l-1.414-1.414zM2 17.465v3.57h2v-3.57H2zM14.525 5.938l3.536 3.536 1.414-1.414-3.536-3.536-1.414 1.414z"/>
</svg>
