<svg width="24" height="24" viewBox="0 0 24 24" fill="none" xmlns="http://www.w3.org/2000/svg">
<path d="M4.00089 11.8803C4.06699 7.46255 7.7019 3.93482 12.1197 4.00092C16.5375 4.06702 20.0652 7.70192 19.9991 12.1197C19.933 16.5375 16.2981 20.0652 11.8803 19.9991C9.47713 19.9632 7.33732 18.8712 5.89612 17.1715L4.28935 18.3679C6.09115 20.5475 8.80117 21.9533 11.8504 21.9989C17.3726 22.0815 21.9163 17.6719 21.9989 12.1496C22.0815 6.6274 17.6718 2.08377 12.1496 2.00114C6.62737 1.91852 2.08374 6.32819 2.00112 11.8504C1.99153 12.4913 2.04244 13.119 2.14859 13.7281L4.00717 12.3442C4.0007 12.1907 3.99856 12.036 4.00089 11.8803Z" fill="#111827"/>
<path d="M13.0597 8.01543C13.068 7.46321 12.627 7.00885 12.0748 7.00058C11.5226 6.99232 11.0682 7.43329 11.06 7.98551L11.0001 11.9851C10.9961 12.2502 11.0977 12.5062 11.2824 12.6965L14.2372 15.741C14.6218 16.1373 15.2549 16.1468 15.6512 15.7622C16.0476 15.3775 16.057 14.7444 15.6724 14.3481L13.0061 11.6008L13.0597 8.01543Z" fill="#111827"/>
<path d="M4.16359 14.8168C3.791 15.4904 2.82891 15.5081 2.43183 14.8486L0.787631 12.1178C0.390553 11.4584 0.856295 10.6163 1.62597 10.6022L4.81298 10.5437C5.58265 10.5295 6.07899 11.3539 5.7064 12.0275L4.16359 14.8168Z" fill="#111827"/>
<path d="M6.09706 17.7355C6.09706 18.2975 5.64149 18.753 5.07953 18.753C4.51757 18.753 4.06201 18.2975 4.06201 17.7355C4.06201 17.1735 4.51757 16.718 5.07953 16.718C5.64149 16.718 6.09706 17.1735 6.09706 17.7355Z" fill="#111827"/>
</svg>
